<?xml version="1.0" encoding="UTF-8"?><svg id="a" xmlns="http://www.w3.org/2000/svg" viewBox="0 0 1483.41 923.91"><defs><style>.b{fill:#004e00;}.c,.d,.e{fill:#fff;}.d{stroke-width:2px;}.d,.e{stroke:#000;stroke-miterlimit:10;}.e{font-family:BDKickromMono, BD Kickrom Mono;font-size:200px;stroke-width:3px;}</style></defs><circle class="b" cx="745.21" cy="461.96" r="461.96"/><circle class="c" cx="751.76" cy="461.96" r="306.21"/><rect class="b" x="0" y="380.62" width="1483.41" height="199.8" rx="99.9" ry="99.9"/><text class="e" transform="translate(46.84 549.82)"><tspan x="0" y="0">Jack William</tspan></text><g><path class="d" d="M381.5,662.37c-3.57-6.5-5.13-12.7-4.67-18.61,.46-5.91,2.56-11.32,6.32-16.22,3.75-4.9,8.78-9.09,15.07-12.55l.93-.51c6.35-3.49,12.62-5.45,18.82-5.88,6.2-.43,11.89,.71,17.09,3.41,5.2,2.71,9.43,7.02,12.69,12.96,2.3,4.18,3.75,8.37,4.36,12.56,.6,4.19,.52,7.98-.24,11.37l-13.97,7.68-3.84-6.99,9.72-6.56c.22-1.36,.24-2.79,.07-4.3-.17-1.51-.54-3.09-1.09-4.73-.56-1.64-1.32-3.34-2.28-5.09-2.33-4.24-5.4-7.23-9.19-8.97-3.8-1.74-8.02-2.31-12.68-1.72-4.66,.59-9.5,2.27-14.51,5.02l-1.02,.56c-5.43,2.99-9.62,6.34-12.57,10.07-2.95,3.73-4.59,7.7-4.9,11.91-.31,4.21,.75,8.54,3.2,12.99,1.14,2.08,2.51,3.97,4.11,5.68,1.6,1.71,3.15,3,4.67,3.86l9.57-3.99,3.77,6.85-14.06,7.73c-2.85-1.6-5.63-3.86-8.33-6.78-2.71-2.92-5.04-6.17-7.02-9.76Z"/><path class="d" d="M402.02,694.96l5-3.99,6.27,5.59,45.55-36.3-4.05-7.36,5.04-4.02,34.11,42.81-13.9,11.08-5-6.27,7.17-7.14-17.03-21.37-18.83,15,16.99,21.33-6.16,4.9-16.99-21.33-20.93,16.68,18.04,22.64,8.68-5.49,4.97,6.24-13.86,11.04-35.09-44.04Z"/><path class="d" d="M530.55,728.46c-1.72-3.66-4.6-7.27-8.63-10.83l-24.72-21.79-4.23,4.8,5.27,6.54-38.51,43.7-7.15-4.41-4.23,4.8,19.92,17.56,4.23-4.8-5.27-6.54,16.65-18.9,11.95,10.15-10.88,34.79,9.26,8.16,4.33-4.91-3.24-4.08,8.5-28.52c1.18,.58,2.35,1.07,3.52,1.45,3.59,1.15,7.06,1.25,10.42,.28,3.36-.97,6.47-3.07,9.33-6.33,2.91-3.3,4.65-6.73,5.22-10.29,.57-3.56,0-7.17-1.73-10.83Zm-10.93,14.43c-2.71,3.07-5.72,4.57-9.04,4.49-3.31-.08-7.07-1.97-11.26-5.66l-10.25-9.03,16.65-18.9,11.01,9.7c3.83,3.38,5.92,6.73,6.25,10.04,.33,3.31-.79,6.43-3.37,9.35Z"/><path class="d" d="M506.76,801.43l3.24-5.52,5.11,2.12,56.12-44.47,7.4,4.35-11.95,70.44,4.3,3.41-3.24,5.52-18.3-10.76,3.24-5.52,5.3,2,2.69-14.2-25.52-15-11.23,9.18,4.33,3.66-3.24,5.52-18.26-10.73Zm35.32-13.29l20.23,11.89,5.87-31.42,.32-1.75-.26-.15-1.37,1.14-24.78,20.31Z"/><path class="d" d="M583.03,845.32l1.89-6.11,8.33,1.08,17.18-55.65-7.49-3.8,1.9-6.16,7.91,2.44,12.76,3.94,6.2,60.64,.29,.09,38.58-46.82,21.3,6.58-1.9,6.16-8.33-1.08-17.18,55.65,7.49,3.8-1.89,6.11-25.38-7.83,1.89-6.11,8.77,1.22,6.32-20.48,9.15-29.65-.23-.12-39.97,48.03-6.36-1.96-6.74-62.35-.26-.03-8.78,29.65-6.32,20.48,8.12,4-1.89,6.11-25.38-7.83Z"/><path class="d" d="M685.84,872.67l.79-6.35,8.39-.39,7.18-57.8-8.04-2.43,.8-6.4,26.36,3.27-.8,6.4-8.39,.39-7.18,57.8,8.04,2.43-.79,6.35-26.36-3.27Z"/><path class="d" d="M758.54,878.61c-7.41,.03-13.61-1.56-18.58-4.79-4.97-3.23-8.72-7.66-11.23-13.31-2.51-5.64-3.79-12.05-3.82-19.23v-1.07c-.04-7.24,1.24-13.69,3.82-19.34,2.58-5.65,6.3-10.11,11.16-13.38,4.86-3.27,10.68-4.92,17.45-4.95,4.77-.02,9.14,.7,13.11,2.18s7.26,3.35,9.88,5.64l.07,15.95-7.97,.03-1.12-11.67c-1.09-.84-2.34-1.55-3.74-2.12s-2.97-1-4.68-1.3-3.56-.44-5.56-.43c-4.84,.02-8.93,1.28-12.27,3.79-3.34,2.5-5.86,5.94-7.57,10.32-1.71,4.37-2.55,9.42-2.52,15.14v1.17c.03,6.2,.98,11.48,2.84,15.86,1.86,4.38,4.57,7.71,8.12,9.99,3.55,2.29,7.86,3.42,12.94,3.4,2.37-.01,4.69-.31,6.95-.89,2.27-.58,4.14-1.34,5.63-2.26l1.07-10.31,7.82-.03,.07,16.05c-2.77,1.74-6.08,3.1-9.93,4.08-3.85,.98-7.83,1.48-11.93,1.5Z"/><path class="d" d="M825.2,872.73l-1.62-6.19,5.11-2.13,8.08-71.15,8.3-2.18,41.48,58.16,5.45-.64,1.62,6.19-20.53,5.38-1.62-6.19,5.16-2.35-8.17-11.93-28.64,7.5-1.41,14.44,5.65-.48,1.62,6.19-20.48,5.37Zm15.5-34.4l22.7-5.94-18.13-26.33-1.01-1.47-.29,.08-.16,1.78-3.09,31.89Z"/><path class="d" d="M951.51,828.06l11.12-5.36-2.84-5.9-5.02,1.4-22.97-18.92c.99-.86,1.9-1.75,2.7-2.68,2.46-2.86,3.89-6.02,4.31-9.49,.41-3.47-.32-7.15-2.2-11.06-1.91-3.96-4.4-6.9-7.46-8.81-3.06-1.91-6.61-2.78-10.65-2.62-4.04,.16-8.48,1.41-13.33,3.75l-29.69,14.31,2.78,5.77,8.07-2.31,25.28,52.47-6.84,4.87,2.78,5.76,23.93-11.53-2.78-5.76-8.07,2.31-10.93-22.69,14-7.07,27.82,23.56Zm-45.24-23.58l-10.93-22.69,13.22-6.37c4.61-2.22,8.5-2.84,11.68-1.85,3.18,.99,5.62,3.23,7.31,6.74,1.78,3.69,1.99,7.05,.62,10.07-1.36,3.02-4.56,5.75-9.59,8.17l-12.31,5.93Z"/><path class="d" d="M987.52,806.25l-3.73-5.2,5.9-5.98-34.1-47.6-13.62,9.76,4.78,9.2-6.11,4.38-10.38-14.49,49.95-35.79,10.38,14.49-6.03,4.32-7.21-7.45-13.62,9.76,34.1,47.6,7.56-3.66,3.73,5.2-21.59,15.47Z"/><path class="d" d="M1033.56,770.61l-4.4-4.65,5.03-6.72-40.05-42.29-6.99,4.66-4.44-4.68,19.28-18.26,4.44,4.68-5.03,6.72,40.05,42.29,6.99-4.66,4.4,4.65-19.28,18.26Z"/><path class="d" d="M1079.97,723.63c-2.86,3.47-6.13,6.4-9.79,8.77-3.67,2.37-7.76,4.15-12.29,5.33l-12.19-10.04,4.94-6,10.04,6.1c2.44-.84,4.77-2.01,6.98-3.52,2.21-1.51,4.26-3.42,6.16-5.72,2.15-2.61,3.58-5.15,4.28-7.63,.7-2.47,.74-4.77,.13-6.9-.62-2.13-1.86-3.97-3.74-5.52-1.75-1.44-3.64-2.29-5.66-2.56-2.02-.26-4.33,.15-6.91,1.24-2.59,1.09-5.63,2.99-9.12,5.68-4.14,3.17-8.09,5.47-11.85,6.92-3.76,1.44-7.3,1.97-10.63,1.57-3.33-.4-6.41-1.76-9.23-4.09-2.98-2.45-4.99-5.44-6.04-8.96-1.05-3.52-1.09-7.25-.12-11.19,.97-3.94,3-7.79,6.1-11.56,3.29-4,6.81-7.03,10.56-9.1,3.74-2.07,7.3-3.39,10.66-3.95l11.4,9.4-4.94,6-9.22-5.42c-1.91,.4-3.9,1.22-5.97,2.45-2.07,1.23-4.17,3.14-6.3,5.73-1.81,2.19-3.02,4.45-3.62,6.75-.61,2.31-.6,4.5,0,6.58,.61,2.08,1.85,3.9,3.74,5.45,1.65,1.36,3.43,2.12,5.36,2.28,1.93,.16,4.15-.33,6.66-1.49,2.51-1.16,5.49-3.01,8.95-5.55,6.44-4.78,12.39-7.52,17.86-8.22,5.46-.7,10.34,.72,14.62,4.25,3.06,2.52,5.09,5.58,6.1,9.17,1.01,3.59,.95,7.44-.19,11.53-1.13,4.09-3.37,8.16-6.7,12.21Z"/><path class="d" d="M1113.62,674.95l-5.56-3.17,2.86-7.89-50.87-29-8.3,14.56,8.18,6.36-3.72,6.53-15.49-8.83,30.43-53.38,15.48,8.83-3.67,6.44-9.67-3.76-8.3,14.56,50.87,29,5.33-6.49,5.56,3.17-13.15,23.07Z"/></g><g><path class="d" d="M429.59,327.78c-2.56,6.13-6.19,10.85-10.9,14.16-4.71,3.31-10.09,5.13-16.14,5.46-6.05,.33-12.38-.89-19-3.64l-1.09-.46c-6.68-2.78-12.02-6.44-16.02-10.98-4-4.54-6.53-9.52-7.58-14.94-1.05-5.42-.45-10.84,1.8-16.24,2.15-5.16,4.57-9.29,7.25-12.39,2.68-3.1,5.56-5.51,8.62-7.23l13.38,5.58-3.07,7.38-10-3.05c-1.59,1.08-3.09,2.6-4.48,4.54-1.4,1.95-2.71,4.39-3.94,7.33-1.58,3.79-1.91,7.66-.99,11.61,.92,3.95,2.96,7.61,6.13,11,3.17,3.39,7.36,6.17,12.58,8.34l1.18,.49c5.28,2.2,10.22,3.31,14.83,3.32,4.61,.01,8.65-1.09,12.12-3.31,3.47-2.22,6.14-5.56,8-10.02,1.26-3.03,2.07-5.71,2.41-8.02,.34-2.32,.42-4.45,.24-6.42l-15.57-6.49-5.75,12.51-6.6-2.75,9.03-21.67,25.67,10.7c.99,2.66,1.49,6.08,1.49,10.27,0,4.19-1.2,9.16-3.6,14.93Z"/><path class="d" d="M464.99,261.78l6.46-10.09-5.36-3.43-3.43,3.72-28.63-3.93c.38-1.22,.68-2.41,.87-3.6,.58-3.61,.15-6.96-1.27-10.04-1.43-3.08-3.91-5.75-7.45-8.02-3.6-2.3-7.15-3.47-10.65-3.48s-6.88,1.07-10.14,3.26c-3.26,2.19-6.29,5.49-9.11,9.89l-17.26,26.96,5.23,3.35,5.5-6.03,47.64,30.5-3.17,7.51,5.23,3.35,13.91-21.72-5.23-3.35-5.5,6.03-20.6-13.19,7.97-12.98,35,5.3Zm-49.42,3.56l-20.6-13.19,7.68-12c2.68-4.18,5.58-6.67,8.71-7.48,3.13-.81,6.29-.19,9.47,1.85,3.35,2.15,5.23,4.81,5.65,8.01,.42,3.19-.84,7.07-3.77,11.64l-7.15,11.17Z"/><path class="d" d="M472.25,249.89l-4.53-4.26,3.11-4.39-30.05-62.71,5.71-6.07,64.14,26.46,4.15-3.34,4.53,4.26-14.12,15.02-4.53-4.26,3.03-4.59-12.87-5.6-19.7,20.95,6.28,12.61,4.4-3.31,4.53,4.26-14.09,14.98Zm-4.99-36.31l15.61-16.6-28.5-12.31-1.59-.68-.2,.22,.78,1.55,13.9,27.83Z"/><path class="d" d="M520.56,199.49l-3.69-5,5.64-5.89-33.63-45.48-7.28,3.67-3.72-5.04,6.46-4.78,20.06-14.84c4.12-3.05,8.17-4.93,12.15-5.64,3.97-.71,7.68-.34,11.13,1.12,3.45,1.46,6.45,3.92,9.02,7.38,2.58,3.49,4.06,7.1,4.44,10.82,.38,3.73-.35,7.38-2.2,10.95-1.85,3.58-4.84,6.89-8.96,9.94l-12.25,9.06,12.61,17.05,7.28-3.67,3.69,5-20.74,15.34Zm-7.37-39.82l12.25-9.06c3.91-2.89,6.06-6.11,6.45-9.65,.39-3.54-.6-6.91-2.97-10.11-2.37-3.2-5.31-5.15-8.84-5.85-3.53-.7-7.25,.39-11.16,3.28l-12.25,9.06,16.51,22.32Z"/><path class="d" d="M566.59,164.83l-2.72-5.59,6.62-4.76-24.78-50.85-7.83,2.28-2.74-5.63,23.19-11.3,2.74,5.63-6.62,4.76,10.87,22.3,30.85-15.04-10.87-22.3-7.83,2.28-2.74-5.63,7.23-3.52,8.73-4.26,7.23-3.52,2.74,5.63-6.62,4.76,24.78,50.85,7.83-2.28,2.72,5.59-23.19,11.3-2.72-5.59,6.62-4.76-10.56-21.68-30.85,15.04,10.57,21.68,7.83-2.28,2.72,5.59-23.19,11.3Z"/><path class="d" d="M632.6,134.66l-1.89-5.92,7.24-3.75-17.17-53.9-8.08,1.12-1.9-5.97,24.58-7.83,1.9,5.97-7.24,3.76,17.17,53.9,8.08-1.12,1.89,5.92-24.58,7.83Z"/><path class="d" d="M692.45,120.23c-7.08,1.3-13.28,.83-18.58-1.4-5.31-2.23-9.65-5.83-13.01-10.8-3.37-4.96-5.68-10.87-6.94-17.73l-.19-1.02c-1.27-6.92-1.16-13.3,.35-19.14,1.5-5.84,4.3-10.74,8.38-14.7,4.09-3.96,9.36-6.53,15.83-7.72,4.56-.84,8.86-.89,12.91-.16,4.04,.73,7.51,1.96,10.41,3.71l2.8,15.23-7.62,1.4-3.07-10.97c-1.18-.62-2.5-1.08-3.94-1.38-1.44-.3-3.01-.45-4.69-.44-1.69,0-3.48,.19-5.39,.54-4.62,.85-8.32,2.76-11.08,5.72s-4.59,6.68-5.47,11.16c-.88,4.47-.82,9.44,.18,14.91l.21,1.12c1.09,5.92,2.89,10.81,5.43,14.67,2.53,3.86,5.69,6.59,9.47,8.16,3.78,1.58,8.1,1.92,12.95,1.03,2.26-.42,4.43-1.1,6.49-2.04,2.06-.95,3.73-1.99,4.99-3.12l-.74-10.04,7.47-1.37,2.81,15.33c-2.35,2.14-5.28,4-8.8,5.6s-7.23,2.76-11.15,3.48Z"/><path class="d" d="M739.96,113.24l.31-6.21,8.1-.98,2.82-56.5-7.96-1.78,.31-6.26,8.03,.4,20.05,1c6.34,.32,11.79,2.1,16.35,5.36,4.56,3.26,8.02,7.59,10.39,13.01,2.36,5.42,3.37,11.53,3.03,18.32l-.08,1.53c-.33,6.63-1.89,12.54-4.69,17.71-2.79,5.18-6.59,9.18-11.39,12.02-4.8,2.84-10.37,4.1-16.71,3.78l-28.57-1.43Zm18.11-6.7l10.34,.52c4.53,.23,8.48-.82,11.86-3.14,3.37-2.32,6.04-5.51,8.01-9.57,1.96-4.07,3.07-8.63,3.33-13.68l.08-1.63c.26-5.22-.38-9.94-1.93-14.14-1.55-4.21-3.89-7.59-7.02-10.15-3.13-2.56-6.96-3.95-11.49-4.18l-10.34-.52-2.82,56.5Z"/><path class="d" d="M800.79,116.54l1.35-6.06,8.15,.4,12.32-55.21-7.54-3.1,1.36-6.11,51.89,11.58-3.76,16.85-7.6-1.7,1.07-9.77-25.9-5.78-5.09,22.81,25.85,5.77-1.66,7.46-25.85-5.77-5.66,25.37,27.44,6.12,3.22-9.44,7.56,1.69-3.75,16.8-53.38-11.91Z"/><path class="d" d="M881.67,140.29c-4.06-1.63-7.73-3.79-11.01-6.48-3.28-2.69-6.13-5.96-8.56-9.8l5.7-14.24,7,2.8-2.69,11.09c1.5,2.02,3.27,3.82,5.32,5.42,2.05,1.6,4.42,2.94,7.1,4.01,3.05,1.22,5.83,1.79,8.32,1.71s4.64-.72,6.42-1.92c1.79-1.2,3.12-2.89,4-5.09,.82-2.04,1.05-4.04,.7-5.99-.35-1.95-1.42-3.96-3.19-6.03-1.77-2.07-4.42-4.33-7.94-6.77-4.15-2.9-7.45-5.88-9.89-8.93-2.44-3.05-3.97-6.18-4.58-9.38-.61-3.2-.26-6.45,1.06-9.75,1.39-3.48,3.56-6.22,6.51-8.23,2.95-2.01,6.39-3.14,10.32-3.41,3.93-.27,8.1,.48,12.49,2.24,4.67,1.87,8.51,4.23,11.53,7.09,3.02,2.85,5.28,5.75,6.8,8.7l-5.33,13.32-7-2.8,2.3-10.13c-.93-1.65-2.28-3.25-4.03-4.8s-4.14-2.93-7.16-4.14c-2.56-1.03-5-1.48-7.32-1.36-2.31,.12-4.34,.77-6.09,1.94-1.75,1.18-3.06,2.87-3.94,5.06-.77,1.92-.95,3.8-.53,5.63,.42,1.83,1.53,3.74,3.34,5.72,1.81,1.98,4.4,4.2,7.78,6.65,6.32,4.55,10.61,9.25,12.87,14.1,2.25,4.85,2.38,9.78,.38,14.79-1.43,3.57-3.66,6.35-6.69,8.35-3.03,1.99-6.6,3.07-10.72,3.22s-8.54-.71-13.27-2.6Z"/><path class="d" d="M908.81,151.11l2.99-5.45,7.71,2.66,27.21-49.59-6.38-5.08,3.01-5.49,22.61,12.41-3.01,5.49-7.71-2.66-27.21,49.59,6.38,5.08-2.99,5.45-22.61-12.41Z"/><path class="d" d="M960.4,184.42c-5.36-3.92-9.1-8.56-11.21-13.91-2.11-5.35-2.62-11.01-1.53-16.97,1.1-5.96,3.76-11.83,7.99-17.62l.7-.96c4.27-5.84,9.08-10.17,14.42-13,5.35-2.83,10.78-4.12,16.3-3.87s10.64,2.1,15.37,5.55c4.51,3.3,7.96,6.61,10.35,9.95,2.39,3.33,4.06,6.69,5.01,10.07l-8.56,11.71-6.45-4.71,5.3-9.01c-.68-1.8-1.8-3.61-3.37-5.42-1.56-1.82-3.63-3.66-6.21-5.55-3.32-2.43-7-3.65-11.05-3.68-4.05-.03-8.09,1.1-12.13,3.38-4.03,2.29-7.72,5.71-11.05,10.28l-.76,1.04c-3.38,4.62-5.61,9.17-6.7,13.64s-.97,8.66,.38,12.56c1.35,3.9,3.97,7.27,7.87,10.12,2.65,1.94,5.07,3.35,7.24,4.22,2.17,.88,4.23,1.45,6.18,1.74l9.95-13.62-10.82-8.52,4.22-5.77,18.95,13.85-16.42,22.45c-2.82,.34-6.26,.03-10.33-.95-4.07-.98-8.63-3.31-13.67-7Z"/><path class="d" d="M983.56,199.57l4.53-4.25,6.51,4.92,41.26-38.69-4.49-6.81,4.57-4.28,5.5,5.86,6.71,7.16-16.74,63.97,.27,.15,35.18-32.99-5.03-7.38,4.57-4.28,12.14,12.95,5.5,5.86-4.57,4.28-6.51-4.92-46.8,43.89-6.07-6.47,16.32-64.86-.27-.15-35.43,33.23,5.03,7.38-4.53,4.25-17.64-18.81Z"/><path class="d" d="M1032.17,252.56l5.23-3.35,5.5,6.03,47.64-30.5-3.17-7.51,5.28-3.38,28.66,44.78-14.54,9.31-4.2-6.56,7.64-6.18-14.3-22.35-19.69,12.6,14.28,22.3-6.44,4.12-14.28-22.3-21.89,14.01,15.15,23.68,8.93-4.43,4.17,6.52-14.5,9.28-29.48-46.06Z"/><path class="d" d="M1142.2,303.45l-12.39-29.51-5.73,2.4,1.84,7.95-52.16,21.89-4.38-6.88-5.73,2.41,9.98,23.78,5.73-2.41-1.84-7.95,22.55-9.47,6.15,13.93-24.24,25.8,4.64,11.05,5.87-2.46-1.11-4.94,19.5-21.34c.78,1.01,1.6,1.93,2.47,2.76,2.65,2.53,5.64,4.08,8.99,4.65,3.34,.58,6.96,.05,10.84-1.58,3.94-1.65,6.91-3.92,8.92-6.79,2-2.87,3.03-6.27,3.07-10.2,.05-3.92-.94-8.3-2.96-13.12Zm-5.79,14.36c-1.12,3.04-3.42,5.29-6.9,6.75-3.67,1.54-6.93,1.57-9.8,.1s-5.35-4.71-7.45-9.71l-5.13-12.23,22.55-9.47,5.52,13.14c1.92,4.58,2.32,8.38,1.21,11.42Z"/></g></svg>