<?xml version="1.0" standalone="no"?>
<!DOCTYPE svg PUBLIC "-//W3C//DTD SVG 20010904//EN"
 "http://www.w3.org/TR/2001/REC-SVG-20010904/DTD/svg10.dtd">
<svg version="1.0" xmlns="http://www.w3.org/2000/svg"
 width="972.000000pt" height="972.000000pt" viewBox="0 0 972.000000 972.000000"
 preserveAspectRatio="xMidYMid meet">
<metadata>
Created by potrace 1.14, written by Peter Selinger 2001-2017
</metadata>
<g transform="translate(0.000000,972.000000) scale(0.100000,-0.100000)"
fill="#000000" stroke="none">
<path d="M4835 7255 c-103 -31 -162 -91 -182 -185 -5 -27 -8 -1101 -8 -2650
l1 -2605 22 -49 c27 -59 81 -110 142 -133 42 -17 117 -18 995 -18 l950 1 56
26 c59 27 97 67 125 134 16 35 18 91 19 524 2 531 1 525 62 588 15 16 49 39
75 51 46 20 55 21 745 21 l698 1 50 23 c64 30 111 80 134 142 18 47 19 123 18
1986 0 1753 -1 1940 -16 1981 -41 116 -139 177 -273 171 -104 -5 -190 -62
-232 -154 -20 -44 -20 -59 -21 -1325 -1 -1409 3 -1316 -63 -1383 -67 -68 -48
-66 -552 -66 -445 0 -456 1 -496 21 -45 24 -99 80 -116 122 -8 18 -12 407 -13
1311 l-1 1285 -22 43 c-30 56 -50 79 -92 106 -67 43 -173 53 -256 26 -52 -17
-113 -76 -140 -135 l-24 -50 0 -1940 c0 -1210 -4 -1953 -10 -1974 -20 -72 -80
-134 -147 -150 -26 -7 -202 -11 -473 -11 -475 0 -472 0 -538 63 -73 70 -66
-127 -72 2062 l-5 1970 -22 42 c-29 54 -67 90 -120 114 -52 24 -145 31 -198
14z"/>
<path d="M2493 7238 c-82 -14 -151 -68 -187 -148 -20 -45 -20 -51 -21 -2425
l-1 -2380 -23 -44 c-40 -77 -109 -120 -194 -122 -108 -3 -179 32 -225 110
l-27 46 -5 995 c-5 944 -6 997 -24 1032 -24 50 -71 95 -126 121 -45 21 -53 21
-751 21 l-705 1 -59 -30 c-67 -34 -111 -88 -129 -158 -8 -31 -11 -388 -11
-1243 l0 -1199 29 -58 c32 -67 84 -110 155 -130 37 -11 402 -13 1881 -12
l1835 1 47 23 c55 26 102 77 129 135 18 40 18 132 16 2666 l-2 2625 -22 41
c-29 54 -91 107 -145 124 -34 11 -182 14 -719 15 -371 0 -694 -3 -716 -7z"/>
</g>
</svg>
